<svg id="rug-pull-games-logo-svg" xmlns="http://www.w3.org/2000/svg" viewBox="0 0 66 75.5">
  <defs>
    <style>
      .cls-1 {
        fill: #fff;
      }
      .cls-2 {
        fill: #e60012;
      }
    </style>
  </defs>
  <g id="rug-pull-games-logo-layer-01">
    <g>
      <path
        class="cls-1"
        d="M0,66V0H66V66H0Zm46.89-30.52V11.98H18.02V52.82h5.87v-11.3c2.32-.18,4.11-.33,5.89-.46v6.13h5.8v5.59h11.22v-11.4l-4.99,.34-.77,5.63c-2.08,0-3.85,0-5.63,0v-5.82l-5.76-.33v-5.86"
      />
      <path
        d="M23.88,41.54v11.3h-5.87V12h28.86v23.5c-5.74,0-11.57-.13-17.4-.13,0-3.88,0-7.63,0-11.43h5.78l.39,5.31h5.42v-11.29H23.94v17.4h5.69c0,1.95,0,3.91,0,5.87"
      />
      <path class="cls-2" d="M35.41,47.36h5.63l.77-5.63,4.99-.34v11.4h-11.22v-5.59l-.17,.17Z" />
      <path d="M29.64,41.21c1.76,.09,3.51,.19,5.76,.32,0,2.03,0,3.93,0,5.82l.17-.17h-5.8" />
      <path class="cls-1" d="M29.42,35.36c-1.79,0-3.42,.05-5.52,.05V18.01h17.14v11.29h-5.42l-.39-5.31h-5.78" />
    </g>
  </g>
</svg>
