<svg id="rug-pull-games-logo-svg" xmlns="http://www.w3.org/2000/svg" viewBox="0 0 66 75.5">
  <defs>
    <style>
      .cls-1 {
        fill: #fff;
      }
      .cls-2 {
        fill: #e60012;
      }
    </style>
  </defs>
  <g id="rug-pull-games-logo-layer-01">
    <g>
      <path class="cls-1" d="M60.38,48.16c0,4.19,.09,20.7-4.1,20.7L12.66,55.75" />
      <rect class="cls-1" x="5.06" y="1.56" width="55.31" height="54.19" rx="7.59" ry="7.59" />
      <g>
        <path
          class="cls-1"
          d="M0,66V0H66V16.47c0,2.75,0,5.52-.01,8.47-.21,16.55-.21,33.55-2.21,50.55-14-4-29-6-43.5-8.73-5.18-.52-8.24-.59-11.99-.77H0Zm51.83-18.99c-1.06-5.5-4.06-10.5-4.4-16.2-.05-2.08-.55-5.44-.55-7.38V11.98H18.02V52.82c1.99,0,4.31,.35,9.22,1.9-1.51-2.82-2.39-5.24-2.74-7.32s-.62-4.08-.62-5.88c2.32-.18,4.11-.33,6.13-.21,6.76,15.2,22.76,21.2,32.76,33.2-1-5-4-9-8-12,3,3,4,6,6,9-12-8-16-25-30.88-30.05-.12-2.06-.26-4.16-.26-6.11,0,0,4.65,.49,10.1,2.65,2.72,1.08,5.81,3.33,8.15,5.34s3.95,3.67,3.95,3.67Z"
        />
        <path
          d="M23.88,41.54c0,1.81,.26,3.82,.62,5.89s1.23,4.49,2.74,7.31c-4.91-1.55-7.24-1.89-9.22-1.9V12h28.86v11.44c0,1.94,.5,5.32,.56,7.4,.34,5.67,3.34,10.67,4.34,16.67-3-5-7-9-12.64-10.48-3.8-1.58-6.75-1.66-9.66-1.66,0-3.88,0-7.63,0-11.43h5.78l.39,5.31h5.42v-11.29H23.94v17.4h5.69c0,1.95,.08,3.98,.26,6.12l-6.01,.06Z"
        />
        <path
          class="cls-2"
          d="M53.43,65.1c2.35,3.41,5.35,3.41,7.35,6.41-2-3-3-6-6-9,4,3,7,7,8,12-3-3-6-6-9.29-9.47l-.06,.06Z"
        />
        <path d="M29.89,41.46c11.89,3.04,16.89,15.04,23.89,24.04-5-5-12-8-17.09-12.58l-6.8-11.46Z" />
        <path
          class="cls-1"
          d="M29.42,35.36c-1.79,0-3.42,.05-5.52,.05V18.01h17.14v11.29h-5.42l-.39-5.31h-5.78l-.03,11.37Z"
        />
      </g>
    </g>
  </g>
</svg>
